<svg width="420" height="458" viewBox="0 0 420 458" fill="none" xmlns="http://www.w3.org/2000/svg">
<path fill-rule="evenodd" clip-rule="evenodd" d="M210.827 406.986V201.186H208.929V406.986H210.827Z" fill="#6E6E6E"/>
<path fill-rule="evenodd" clip-rule="evenodd" d="M209.877 388.008L202.286 380.417L209.877 406.986L217.468 380.417L209.877 388.008Z" fill="#6E6E6E" stroke="#6E6E6E" stroke-width="1.37707"/>
<path fill-rule="evenodd" clip-rule="evenodd" d="M209.877 182.208L202.286 174.617L209.877 201.186L217.468 174.617L209.877 182.208Z" fill="#6E6E6E" stroke="#6E6E6E" stroke-width="1.37707"/>
<path d="M219.691 412.207V434.025H217.049V414.977H216.921L211.595 418.514V415.829L217.049 412.207H219.691Z" fill="#6E6E6E"/>
<path d="M211.394 24.5256V22.3523L220.982 7.18182H222.559V10.5483H221.494L214.249 22.0114V22.1818H227.161V24.5256H211.394ZM221.664 29V23.8651V22.853V7.18182H224.178V29H221.664Z" fill="#6E6E6E"/>
<path d="M410.283 231.581C408.877 231.581 407.623 231.34 406.522 230.857C405.429 230.374 404.559 229.703 403.912 228.843C403.273 227.977 402.925 226.972 402.868 225.828H405.553C405.61 226.532 405.851 227.139 406.277 227.65C406.704 228.154 407.261 228.545 407.95 228.822C408.639 229.099 409.402 229.238 410.241 229.238C411.178 229.238 412.009 229.074 412.733 228.747C413.458 228.421 414.026 227.966 414.438 227.384C414.85 226.801 415.056 226.127 415.056 225.36C415.056 224.557 414.857 223.85 414.459 223.24C414.062 222.622 413.479 222.139 412.712 221.791C411.945 221.443 411.008 221.269 409.9 221.269H408.152V218.925H409.9C410.766 218.925 411.526 218.769 412.179 218.456C412.84 218.144 413.355 217.703 413.724 217.135C414.101 216.567 414.289 215.899 414.289 215.132C414.289 214.394 414.125 213.751 413.799 213.204C413.472 212.657 413.01 212.231 412.414 211.926C411.824 211.62 411.128 211.468 410.326 211.468C409.573 211.468 408.863 211.606 408.195 211.883C407.535 212.153 406.995 212.547 406.576 213.066C406.157 213.577 405.929 214.195 405.894 214.919H403.337C403.38 213.776 403.724 212.774 404.37 211.915C405.017 211.049 405.862 210.374 406.906 209.891C407.957 209.408 409.111 209.166 410.368 209.166C411.718 209.166 412.875 209.44 413.841 209.987C414.807 210.527 415.549 211.24 416.068 212.128C416.586 213.016 416.846 213.975 416.846 215.005C416.846 216.233 416.522 217.281 415.876 218.147C415.237 219.014 414.367 219.614 413.266 219.948V220.118C414.644 220.345 415.72 220.931 416.494 221.876C417.268 222.813 417.655 223.975 417.655 225.36C417.655 226.546 417.332 227.611 416.686 228.556C416.047 229.493 415.173 230.232 414.065 230.772C412.957 231.311 411.696 231.581 410.283 231.581Z" fill="#6E6E6E"/>
<path fill-rule="evenodd" clip-rule="evenodd" d="M370.065 227.79H134.865V229.688H370.065V227.79Z" fill="#6E6E6E"/>
<path fill-rule="evenodd" clip-rule="evenodd" d="M351.087 228.74L343.496 236.331L370.065 228.74L343.496 221.149L351.087 228.74Z" fill="#6E6E6E" stroke="#6E6E6E" stroke-width="1.37707"/>
<path fill-rule="evenodd" clip-rule="evenodd" d="M115.887 228.74L108.296 236.331L134.865 228.74L108.296 221.149L115.887 228.74Z" fill="#6E6E6E" stroke="#6E6E6E" stroke-width="1.37707"/>
<path d="M2.25852 231.513V229.595L9.46023 221.712C10.3054 220.788 11.0014 219.986 11.5483 219.304C12.0952 218.615 12.5 217.969 12.7628 217.365C13.0327 216.754 13.1676 216.115 13.1676 215.447C13.1676 214.68 12.983 214.016 12.6136 213.455C12.2514 212.894 11.7543 212.461 11.1222 212.155C10.4901 211.85 9.77983 211.697 8.99148 211.697C8.15341 211.697 7.42187 211.871 6.79687 212.219C6.17898 212.56 5.69957 213.04 5.35866 213.658C5.02486 214.275 4.85795 215 4.85795 215.831H2.34375C2.34375 214.552 2.63849 213.43 3.22798 212.464C3.81747 211.498 4.62003 210.746 5.63565 210.206C6.65838 209.666 7.8054 209.396 9.0767 209.396C10.3551 209.396 11.4879 209.666 12.4751 210.206C13.4624 210.746 14.2365 211.474 14.7976 212.39C15.3587 213.306 15.6392 214.325 15.6392 215.447C15.6392 216.25 15.4936 217.035 15.2024 217.802C14.9183 218.562 14.4212 219.41 13.7109 220.348C13.0078 221.278 12.0312 222.415 10.7812 223.757L5.88068 228.998V229.169H16.0227V231.513H2.25852Z" fill="#6E6E6E"/>
<path fill-rule="evenodd" clip-rule="evenodd" d="M18.8042 245.248L164.327 390.771L165.669 389.429L20.1461 243.906L18.8042 245.248Z" fill="#6E6E6E"/>
<path fill-rule="evenodd" clip-rule="evenodd" d="M32.8949 257.996H43.6303L19.4756 244.577L32.8949 268.731V257.996Z" fill="#6E6E6E" stroke="#6E6E6E" stroke-width="1.37707"/>
<path fill-rule="evenodd" clip-rule="evenodd" d="M178.418 403.518H189.153L164.999 390.099L178.418 414.254V403.518Z" fill="#6E6E6E" stroke="#6E6E6E" stroke-width="1.37707"/>
<path fill-rule="evenodd" clip-rule="evenodd" d="M228.581 42.7065L374.103 188.229L375.445 186.887L229.923 41.3646L228.581 42.7065Z" fill="#6E6E6E"/>
<path fill-rule="evenodd" clip-rule="evenodd" d="M242.671 55.4544H253.407L229.252 42.0351L242.671 66.1898V55.4544Z" fill="#6E6E6E" stroke="#6E6E6E" stroke-width="1.37707"/>
<path fill-rule="evenodd" clip-rule="evenodd" d="M388.194 200.977H398.93L374.775 187.558L388.194 211.712V200.977Z" fill="#6E6E6E" stroke="#6E6E6E" stroke-width="1.37707"/>
</svg>
