<svg width="22" height="27" viewBox="0 0 22 27" fill="none" xmlns="http://www.w3.org/2000/svg">
<g clip-path="url(#clip0_49_1266)">
<path d="M18.2402 12.0855C15.7506 12.0855 14.4296 9.92543 14.4296 8.22834C14.4296 6.27418 15.8014 4.26855 18.0878 4.26855C18.2918 4.26855 18.5449 4.2686 18.7989 4.32023C17.3765 2.41727 15.1409 1.28599 12.7021 1.28599C7.31647 1.28599 6.9607 5.0402 6.9607 10.8515V13.4744V16.0973C6.9607 21.9087 7.31647 25.7142 12.7021 25.7142C16.7667 25.7142 19.7644 22.1144 20.7297 17.9486C20.8317 17.5887 21.0853 17.4344 21.3395 17.4344C21.6442 17.4344 22 17.6407 22 18.0514C22 22.8856 16.6651 26.9999 12.7021 26.9999C9.24707 26.9999 5.74143 25.9199 3.35326 23.3998C0.863713 20.7768 0 17.1254 0 13.4741C0 9.82266 0.863713 6.17119 3.35326 3.54843C5.74143 1.02851 9.24707 0 12.7021 0C17.1223 0 20.8313 3.29148 21.5934 7.71415C21.6444 7.97143 21.6444 8.17694 21.6444 8.3826C21.6444 10.4398 20.12 12.0855 18.2402 12.0855Z" fill="#6E6E6E"/>
</g>
<defs>
<clipPath id="clip0_49_1266">
<rect width="22" height="27" fill="white"/>
</clipPath>
</defs>
</svg>
