<svg width="32" height="29" viewBox="0 0 32 29" fill="none" xmlns="http://www.w3.org/2000/svg">
<path d="M19.0554 17.4011C18.3094 17.3874 17.781 17.1521 17.4702 16.6952C17.1595 16.2383 17.0089 15.6418 17.0185 14.9059C17.0274 13.7693 17.3162 12.2922 17.8849 10.4747C18.4535 8.65719 19.2485 7.01477 20.2698 5.54744C21.2911 4.08014 22.4853 3.30351 23.8522 3.21756C24.438 3.234 24.8597 3.44741 25.1171 3.8578C25.3744 4.26821 25.5003 4.77711 25.4949 5.38449C25.4993 5.86361 25.2787 7.05772 24.8329 8.96685C24.3871 10.876 23.6895 12.7268 22.74 14.5192C21.7904 16.3116 20.5623 17.2722 19.0554 17.4011ZM5.12525 10.1123C5.13758 10.5063 5.27721 10.8018 5.54414 10.9988C5.81109 11.1958 6.13142 11.2943 6.50513 11.2943C7.68099 11.1946 8.5417 10.4966 9.08723 9.20034C9.63278 7.90408 10.1674 6.60782 10.691 5.31154C11.2146 4.01528 12.0315 3.31729 13.1417 3.21756C13.3361 3.21758 13.473 3.26683 13.5524 3.36531C13.6318 3.46382 13.6701 3.61156 13.6674 3.80853C13.6646 4.01238 13.6208 4.26137 13.5359 4.55548C13.4511 4.84962 13.3415 5.14784 13.2074 5.45015L7.16222 23.3109C6.59802 24.6915 5.75517 25.4762 4.63366 25.6651C3.51216 25.854 2.47461 25.9626 1.52102 25.991C0.567444 26.0194 0.060441 26.4831 0 27.3821C0.00137632 27.7269 0.113627 28.0387 0.336752 28.3178C0.559893 28.5969 0.885699 28.7447 1.31416 28.7611C1.42779 28.7474 2.15332 28.6927 3.49076 28.5969C4.8282 28.5011 6.49008 28.4464 8.47639 28.4328C10.3984 28.4464 12.0246 28.5011 13.3552 28.5969C14.6858 28.6927 15.425 28.7474 15.5729 28.7611C16.0014 28.7447 16.3272 28.5969 16.5503 28.3178C16.7734 28.0388 16.8857 27.7269 16.8871 27.3821C16.8457 26.5775 16.5561 26.1511 16.0183 26.1029C15.4804 26.0546 14.9426 25.959 14.4047 25.8159C13.8669 25.6728 13.5773 25.0567 13.5359 23.9676C13.5387 23.7076 13.566 23.4559 13.6181 23.2124C13.6701 22.9689 13.7303 22.7172 13.7988 22.4573L14.9158 19.1084C15.1855 18.4545 15.8289 18.3998 16.846 18.9442C17.8631 19.4887 19.41 19.828 21.4867 19.962C23.5633 19.9183 25.7837 18.791 28.1478 16.5803C30.512 14.3696 31.796 11.3381 32 7.48576C31.9904 5.30653 31.3853 3.52537 30.1848 2.1423C28.9842 0.759257 27.2457 0.045162 24.9692 0C23.796 0.0150691 22.6105 0.329712 21.4127 0.943927C20.2149 1.55818 19.1444 2.38172 18.2012 3.41455C17.9712 2.43918 17.5277 1.63205 16.8706 0.993169C16.2135 0.354325 15.3429 0.0232763 14.2587 0C12.4497 0.110269 10.8622 0.9258 9.49608 2.4466C8.13 3.96744 7.06325 5.53204 6.29584 7.1404C5.52843 8.74879 5.13823 9.73943 5.12525 10.1123Z" fill="#6E6E6E"/>
</svg>
